<svg xmlns="http://www.w3.org/2000/svg" viewBox="0 0 24 24">
    <defs>
        <style>
            [id*="-dark"] { fill: rgba(0, 0, 0, 0.87); }
            [id*="-light"] { fill: #fff; }
            path { display: none }
            path:target { display: inline }
        </style>
    </defs>
    <path id="burger-dark" d="M3 18h18v-2H3v2zm0-5h18v-2H3v2zm0-7v2h18V6H3z"/>
    <path id="burger-light" d="M3 18h18v-2H3v2zm0-5h18v-2H3v2zm0-7v2h18V6H3z"/>
    <path id="times-dark"
          d="M19 6.41L17.59 5 12 10.59 6.41 5 5 6.41 10.59 12 5 17.59 6.41 19 12 13.41 17.59 19 19 17.59 13.41 12z"/>
    <path id="times-light"
          d="M19 6.41L17.59 5 12 10.59 6.41 5 5 6.41 10.59 12 5 17.59 6.41 19 12 13.41 17.59 19 19 17.59 13.41 12z"/>
    <path id="arrow-down-dark" d="M7 10l5 5 5-5z"/>
    <path id="arrow-down-light" d="M7 10l5 5 5-5z"/>
    <path id="dark-theme-light"
          d="M9.37 5.51c-.18.64-.27 1.31-.27 1.99 0 4.08 3.32 7.4 7.4 7.4.68 0 1.35-.09 1.99-.27C17.45 17.19 14.93 19 12 19c-3.86 0-7-3.14-7-7 0-2.93 1.81-5.45 4.37-6.49zM12 3c-4.97 0-9 4.03-9 9s4.03 9 9 9 9-4.03 9-9c0-.46-.04-.92-.1-1.36-.98 1.37-2.58 2.26-4.4 2.26-2.98 0-5.4-2.42-5.4-5.4 0-1.81.89-3.42 2.26-4.4-.44-.06-.9-.1-1.36-.1z"/>
    <path id="dark-theme-dark"
          d="M9.37 5.51c-.18.64-.27 1.31-.27 1.99 0 4.08 3.32 7.4 7.4 7.4.68 0 1.35-.09 1.99-.27C17.45 17.19 14.93 19 12 19c-3.86 0-7-3.14-7-7 0-2.93 1.81-5.45 4.37-6.49zM12 3c-4.97 0-9 4.03-9 9s4.03 9 9 9 9-4.03 9-9c0-.46-.04-.92-.1-1.36-.98 1.37-2.58 2.26-4.4 2.26-2.98 0-5.4-2.42-5.4-5.4 0-1.81.89-3.42 2.26-4.4-.44-.06-.9-.1-1.36-.1z"/>
    <path id="light-theme-light"
          d="M12 9c1.65 0 3 1.35 3 3s-1.35 3-3 3-3-1.35-3-3 1.35-3 3-3m0-2c-2.76 0-5 2.24-5 5s2.24 5 5 5 5-2.24 5-5-2.24-5-5-5zM2 13h2c.55 0 1-.45 1-1s-.45-1-1-1H2c-.55 0-1 .45-1 1s.45 1 1 1zm18 0h2c.55 0 1-.45 1-1s-.45-1-1-1h-2c-.55 0-1 .45-1 1s.45 1 1 1zM11 2v2c0 .55.45 1 1 1s1-.45 1-1V2c0-.55-.45-1-1-1s-1 .45-1 1zm0 18v2c0 .55.45 1 1 1s1-.45 1-1v-2c0-.55-.45-1-1-1s-1 .45-1 1zM5.99 4.58c-.39-.39-1.03-.39-1.41 0-.39.39-.39 1.03 0 1.41l1.06 1.06c.39.39 1.03.39 1.41 0s.39-1.03 0-1.41L5.99 4.58zm12.37 12.37c-.39-.39-1.03-.39-1.41 0-.39.39-.39 1.03 0 1.41l1.06 1.06c.39.39 1.03.39 1.41 0 .39-.39.39-1.03 0-1.41l-1.06-1.06zm1.06-10.96c.39-.39.39-1.03 0-1.41-.39-.39-1.03-.39-1.41 0l-1.06 1.06c-.39.39-.39 1.03 0 1.41s1.03.39 1.41 0l1.06-1.06zM7.05 18.36c.39-.39.39-1.03 0-1.41-.39-.39-1.03-.39-1.41 0l-1.06 1.06c-.39.39-.39 1.03 0 1.41s1.03.39 1.41 0l1.06-1.06z"/>
    <path id="light-theme-dark"
          d="M12 9c1.65 0 3 1.35 3 3s-1.35 3-3 3-3-1.35-3-3 1.35-3 3-3m0-2c-2.76 0-5 2.24-5 5s2.24 5 5 5 5-2.24 5-5-2.24-5-5-5zM2 13h2c.55 0 1-.45 1-1s-.45-1-1-1H2c-.55 0-1 .45-1 1s.45 1 1 1zm18 0h2c.55 0 1-.45 1-1s-.45-1-1-1h-2c-.55 0-1 .45-1 1s.45 1 1 1zM11 2v2c0 .55.45 1 1 1s1-.45 1-1V2c0-.55-.45-1-1-1s-1 .45-1 1zm0 18v2c0 .55.45 1 1 1s1-.45 1-1v-2c0-.55-.45-1-1-1s-1 .45-1 1zM5.99 4.58c-.39-.39-1.03-.39-1.41 0-.39.39-.39 1.03 0 1.41l1.06 1.06c.39.39 1.03.39 1.41 0s.39-1.03 0-1.41L5.99 4.58zm12.37 12.37c-.39-.39-1.03-.39-1.41 0-.39.39-.39 1.03 0 1.41l1.06 1.06c.39.39 1.03.39 1.41 0 .39-.39.39-1.03 0-1.41l-1.06-1.06zm1.06-10.96c.39-.39.39-1.03 0-1.41-.39-.39-1.03-.39-1.41 0l-1.06 1.06c-.39.39-.39 1.03 0 1.41s1.03.39 1.41 0l1.06-1.06zM7.05 18.36c.39-.39.39-1.03 0-1.41-.39-.39-1.03-.39-1.41 0l-1.06 1.06c-.39.39-.39 1.03 0 1.41s1.03.39 1.41 0l1.06-1.06z"/>
    <path id="checkbox-empty-light"
          d="M19 5v14H5V5h14m0-2H5c-1.1 0-2 .9-2 2v14c0 1.1.9 2 2 2h14c1.1 0 2-.9 2-2V5c0-1.1-.9-2-2-2z"/>
    <path id="checkbox-empty-dark"
          d="M19 5v14H5V5h14m0-2H5c-1.1 0-2 .9-2 2v14c0 1.1.9 2 2 2h14c1.1 0 2-.9 2-2V5c0-1.1-.9-2-2-2z"/>
    <path id="checkbox-checked-light"
          d="M19 3H5c-1.11 0-2 .9-2 2v14c0 1.1.89 2 2 2h14c1.11 0 2-.9 2-2V5c0-1.1-.89-2-2-2zm-9 14-5-5 1.41-1.41L10 14.17l7.59-7.59L19 8l-9 9z"/>
    <path id="checkbox-checked-dark"
          d="M19 3H5c-1.1 0-2 .9-2 2v14c0 1.1.9 2 2 2h14c1.1 0 2-.9 2-2V5c0-1.1-.9-2-2-2zm0 16H5V5h14v14zM17.99 9l-1.41-1.42-6.59 6.59-2.58-2.57-1.42 1.41 4 3.99z"/>
</svg>
