<svg xmlns="http://www.w3.org/2000/svg" viewBox="0 0 24 24">
    <defs>
        <style>
            [id*="-dark"] {
            fill: rgba(0, 0, 0, 0.87);
            }
            [id*="-light"] {
            fill: #fff;
            }

            path { display: none }
            path:target { display: inline }
        </style>
    </defs>
    <path id="burger-dark" d="M3 18h18v-2H3v2zm0-5h18v-2H3v2zm0-7v2h18V6H3z"/>
    <path id="burger-light" d="M3 18h18v-2H3v2zm0-5h18v-2H3v2zm0-7v2h18V6H3z"/>
    <path id="times-dark" d="M19 6.41L17.59 5 12 10.59 6.41 5 5 6.41 10.59 12 5 17.59 6.41 19 12 13.41 17.59 19 19 17.59 13.41 12z"/>
    <path id="times-light" d="M19 6.41L17.59 5 12 10.59 6.41 5 5 6.41 10.59 12 5 17.59 6.41 19 12 13.41 17.59 19 19 17.59 13.41 12z"/>
    <path id="arrow-down-dark" d="M7 10l5 5 5-5z" />
    <path id="arrow-down-light" d="M7 10l5 5 5-5z" />
</svg>
