<svg xmlns="http://www.w3.org/2000/svg" viewBox="0 0 24 24">
    <defs>
        <style>
            [id*="-dark"] { fill: rgba(0, 0, 0, 0.87); }
            [id*="-light"] { fill: #ccc; }
            path { display: none }
            path:target { display: inline }
        </style>
    </defs>

    <path id="burger-dark" d="M3 18h18v-2H3v2zm0-5h18v-2H3v2zm0-7v2h18V6H3z"/>
    <path id="burger-light" d="M3 18h18v-2H3v2zm0-5h18v-2H3v2zm0-7v2h18V6H3z"/>

    <path id="times-dark"
          d="M19 6.41L17.59 5 12 10.59 6.41 5 5 6.41 10.59 12 5 17.59 6.41 19 12 13.41 17.59 19 19 17.59 13.41 12z"/>
    <path id="times-light"
          d="M19 6.41L17.59 5 12 10.59 6.41 5 5 6.41 10.59 12 5 17.59 6.41 19 12 13.41 17.59 19 19 17.59 13.41 12z"/>

    <path id="arrow-down-dark" d="M7 10l5 5 5-5z"/>
    <path id="arrow-down-light" d="M7 10l5 5 5-5z"/>

    <path id="dark-theme-light"
          d="M9.37 5.51c-.18.64-.27 1.31-.27 1.99 0 4.08 3.32 7.4 7.4 7.4.68 0 1.35-.09 1.99-.27C17.45 17.19 14.93 19 12 19c-3.86 0-7-3.14-7-7 0-2.93 1.81-5.45 4.37-6.49zM12 3c-4.97 0-9 4.03-9 9s4.03 9 9 9 9-4.03 9-9c0-.46-.04-.92-.1-1.36-.98 1.37-2.58 2.26-4.4 2.26-2.98 0-5.4-2.42-5.4-5.4 0-1.81.89-3.42 2.26-4.4-.44-.06-.9-.1-1.36-.1z"/>
    <path id="dark-theme-dark"
          d="M9.37 5.51c-.18.64-.27 1.31-.27 1.99 0 4.08 3.32 7.4 7.4 7.4.68 0 1.35-.09 1.99-.27C17.45 17.19 14.93 19 12 19c-3.86 0-7-3.14-7-7 0-2.93 1.81-5.45 4.37-6.49zM12 3c-4.97 0-9 4.03-9 9s4.03 9 9 9 9-4.03 9-9c0-.46-.04-.92-.1-1.36-.98 1.37-2.58 2.26-4.4 2.26-2.98 0-5.4-2.42-5.4-5.4 0-1.81.89-3.42 2.26-4.4-.44-.06-.9-.1-1.36-.1z"/>

    <path id="light-theme-light"
          d="M12 9c1.65 0 3 1.35 3 3s-1.35 3-3 3-3-1.35-3-3 1.35-3 3-3m0-2c-2.76 0-5 2.24-5 5s2.24 5 5 5 5-2.24 5-5-2.24-5-5-5zM2 13h2c.55 0 1-.45 1-1s-.45-1-1-1H2c-.55 0-1 .45-1 1s.45 1 1 1zm18 0h2c.55 0 1-.45 1-1s-.45-1-1-1h-2c-.55 0-1 .45-1 1s.45 1 1 1zM11 2v2c0 .55.45 1 1 1s1-.45 1-1V2c0-.55-.45-1-1-1s-1 .45-1 1zm0 18v2c0 .55.45 1 1 1s1-.45 1-1v-2c0-.55-.45-1-1-1s-1 .45-1 1zM5.99 4.58c-.39-.39-1.03-.39-1.41 0-.39.39-.39 1.03 0 1.41l1.06 1.06c.39.39 1.03.39 1.41 0s.39-1.03 0-1.41L5.99 4.58zm12.37 12.37c-.39-.39-1.03-.39-1.41 0-.39.39-.39 1.03 0 1.41l1.06 1.06c.39.39 1.03.39 1.41 0 .39-.39.39-1.03 0-1.41l-1.06-1.06zm1.06-10.96c.39-.39.39-1.03 0-1.41-.39-.39-1.03-.39-1.41 0l-1.06 1.06c-.39.39-.39 1.03 0 1.41s1.03.39 1.41 0l1.06-1.06zM7.05 18.36c.39-.39.39-1.03 0-1.41-.39-.39-1.03-.39-1.41 0l-1.06 1.06c-.39.39-.39 1.03 0 1.41s1.03.39 1.41 0l1.06-1.06z"/>
    <path id="light-theme-dark"
          d="M12 9c1.65 0 3 1.35 3 3s-1.35 3-3 3-3-1.35-3-3 1.35-3 3-3m0-2c-2.76 0-5 2.24-5 5s2.24 5 5 5 5-2.24 5-5-2.24-5-5-5zM2 13h2c.55 0 1-.45 1-1s-.45-1-1-1H2c-.55 0-1 .45-1 1s.45 1 1 1zm18 0h2c.55 0 1-.45 1-1s-.45-1-1-1h-2c-.55 0-1 .45-1 1s.45 1 1 1zM11 2v2c0 .55.45 1 1 1s1-.45 1-1V2c0-.55-.45-1-1-1s-1 .45-1 1zm0 18v2c0 .55.45 1 1 1s1-.45 1-1v-2c0-.55-.45-1-1-1s-1 .45-1 1zM5.99 4.58c-.39-.39-1.03-.39-1.41 0-.39.39-.39 1.03 0 1.41l1.06 1.06c.39.39 1.03.39 1.41 0s.39-1.03 0-1.41L5.99 4.58zm12.37 12.37c-.39-.39-1.03-.39-1.41 0-.39.39-.39 1.03 0 1.41l1.06 1.06c.39.39 1.03.39 1.41 0 .39-.39.39-1.03 0-1.41l-1.06-1.06zm1.06-10.96c.39-.39.39-1.03 0-1.41-.39-.39-1.03-.39-1.41 0l-1.06 1.06c-.39.39-.39 1.03 0 1.41s1.03.39 1.41 0l1.06-1.06zM7.05 18.36c.39-.39.39-1.03 0-1.41-.39-.39-1.03-.39-1.41 0l-1.06 1.06c-.39.39-.39 1.03 0 1.41s1.03.39 1.41 0l1.06-1.06z"/>

    <path id="checkbox-empty-light"
          d="M19 5v14H5V5h14m0-2H5c-1.1 0-2 .9-2 2v14c0 1.1.9 2 2 2h14c1.1 0 2-.9 2-2V5c0-1.1-.9-2-2-2z"/>
    <path id="checkbox-empty-dark"
          d="M19 5v14H5V5h14m0-2H5c-1.1 0-2 .9-2 2v14c0 1.1.9 2 2 2h14c1.1 0 2-.9 2-2V5c0-1.1-.9-2-2-2z"/>

    <path id="checkbox-checked-light"
          d="M19 3H5c-1.11 0-2 .9-2 2v14c0 1.1.89 2 2 2h14c1.11 0 2-.9 2-2V5c0-1.1-.89-2-2-2zm-9 14-5-5 1.41-1.41L10 14.17l7.59-7.59L19 8l-9 9z"/>
    <path id="checkbox-checked-dark"
          d="M19 3H5c-1.1 0-2 .9-2 2v14c0 1.1.9 2 2 2h14c1.1 0 2-.9 2-2V5c0-1.1-.9-2-2-2zm0 16H5V5h14v14zM17.99 9l-1.41-1.42-6.59 6.59-2.58-2.57-1.42 1.41 4 3.99z"/>

    <path id="play-light" transform="scale(0.5, 0.5)"
          d="M24 4C12.95 4 4 12.95 4 24s8.95 20 20 20 20-8.95 20-20S35.05 4 24 4zm-4 29V15l12 9-12 9z"/>
    <path id="play-dark" transform="scale(0.5, 0.5)"
          d="M24 4C12.95 4 4 12.95 4 24s8.95 20 20 20 20-8.95 20-20S35.05 4 24 4zm-4 29V15l12 9-12 9z"/>

    <path id="arrow-left-light" d="M11.67 3.87L9.9 2.1 0 12l9.9 9.9 1.77-1.77L3.54 12z"/>
    <path id="arrow-left-dark" d="M11.67 3.87L9.9 2.1 0 12l9.9 9.9 1.77-1.77L3.54 12z"/>

    <path id="restart-light"
          d="M12 5V1L7 6l5 5V7c3.31 0 6 2.69 6 6s-2.69 6-6 6-6-2.69-6-6H4c0 4.42 3.58 8 8 8s8-3.58 8-8-3.58-8-8-8z"/>

    <path id="rotate-light"
          d="M7.11 8.53L5.7 7.11C4.8 8.27 4.24 9.61 4.07 11h2.02c.14-.87.49-1.72 1.02-2.47zM6.09 13H4.07c.17 1.39.72 2.73 1.62 3.89l1.41-1.42c-.52-.75-.87-1.59-1.01-2.47zm1.01 5.32c1.16.9 2.51 1.44 3.9 1.61V17.9c-.87-.15-1.71-.49-2.46-1.03L7.1 18.32zM13 4.07V1L8.45 5.55 13 10V6.09c2.84.48 5 2.94 5 5.91s-2.16 5.43-5 5.91v2.02c3.95-.49 7-3.85 7-7.93s-3.05-7.44-7-7.93z"/>
    <path id="rotate-dark"
          d="M7.11 8.53L5.7 7.11C4.8 8.27 4.24 9.61 4.07 11h2.02c.14-.87.49-1.72 1.02-2.47zM6.09 13H4.07c.17 1.39.72 2.73 1.62 3.89l1.41-1.42c-.52-.75-.87-1.59-1.01-2.47zm1.01 5.32c1.16.9 2.51 1.44 3.9 1.61V17.9c-.87-.15-1.71-.49-2.46-1.03L7.1 18.32zM13 4.07V1L8.45 5.55 13 10V6.09c2.84.48 5 2.94 5 5.91s-2.16 5.43-5 5.91v2.02c3.95-.49 7-3.85 7-7.93s-3.05-7.44-7-7.93z"/>

    <!-- custom colors -->
    <path id="times-red"
          fill="red"
          d="M19 6.41L17.59 5 12 10.59 6.41 5 5 6.41 10.59 12 5 17.59 6.41 19 12 13.41 17.59 19 19 17.59 13.41 12z"/>

    <path id="plus-green" d="M19 13h-6v6h-2v-6H5v-2h6V5h2v6h6v2z" fill="green"/>

    <path id="system-light"
          d="M21 3H3c-1.1 0-2 .9-2 2v14c0 1.1.9 2 2 2h18c1.1 0 2-.9 2-2V5c0-1.1-.9-2-2-2zm0 16.01H3V4.99h18v14.02zM8 16h2.5l1.5 1.5 1.5-1.5H16v-2.5l1.5-1.5-1.5-1.5V8h-2.5L12 6.5 10.5 8H8v2.5L6.5 12 8 13.5V16zm4-7c1.66 0 3 1.34 3 3s-1.34 3-3 3V9z"/>
    <path id="system-dark"
          d="M21 3H3c-1.1 0-2 .9-2 2v14c0 1.1.9 2 2 2h18c1.1 0 2-.9 2-2V5c0-1.1-.9-2-2-2zm0 16.01H3V4.99h18v14.02zM8 16h2.5l1.5 1.5 1.5-1.5H16v-2.5l1.5-1.5-1.5-1.5V8h-2.5L12 6.5 10.5 8H8v2.5L6.5 12 8 13.5V16zm4-7c1.66 0 3 1.34 3 3s-1.34 3-3 3V9z"/>

    <path id="apply-light"
          d="m9 16.2-3.5-3.5a.9839.9839 0 0 0-1.4 0c-.39.39-.39 1.01 0 1.4l4.19 4.19c.39.39 1.02.39 1.41 0L20.3 7.7c.39-.39.39-1.01 0-1.4a.9839.9839 0 0 0-1.4 0L9 16.2z"/>
    <path id="apply-dark"
          d="m9 16.2-3.5-3.5a.9839.9839 0 0 0-1.4 0c-.39.39-.39 1.01 0 1.4l4.19 4.19c.39.39 1.02.39 1.41 0L20.3 7.7c.39-.39.39-1.01 0-1.4a.9839.9839 0 0 0-1.4 0L9 16.2z"/>

    <path id="close-light"
          d="M18.3 5.71a.9959.9959 0 0 0-1.41 0L12 10.59 7.11 5.7a.9959.9959 0 0 0-1.41 0c-.39.39-.39 1.02 0 1.41L10.59 12 5.7 16.89c-.39.39-.39 1.02 0 1.41.39.39 1.02.39 1.41 0L12 13.41l4.89 4.89c.39.39 1.02.39 1.41 0 .39-.39.39-1.02 0-1.41L13.41 12l4.89-4.89c.38-.38.38-1.02 0-1.4z"/>
    <path id="close-dark"
          d="M18.3 5.71a.9959.9959 0 0 0-1.41 0L12 10.59 7.11 5.7a.9959.9959 0 0 0-1.41 0c-.39.39-.39 1.02 0 1.41L10.59 12 5.7 16.89c-.39.39-.39 1.02 0 1.41.39.39 1.02.39 1.41 0L12 13.41l4.89 4.89c.39.39 1.02.39 1.41 0 .39-.39.39-1.02 0-1.41L13.41 12l4.89-4.89c.38-.38.38-1.02 0-1.4z"/>

    <path id="rotate-left-light"
          d="M6.56 7.98C6.1 7.52 5.31 7.6 5 8.17c-.28.51-.5 1.03-.67 1.58-.19.63.31 1.25.96 1.25h.01c.43 0 .82-.28.94-.7.12-.4.28-.79.48-1.17.22-.37.15-.84-.16-1.15zM5.31 13h-.02c-.65 0-1.15.62-.96 1.25.16.54.38 1.07.66 1.58.31.57 1.11.66 1.57.2.3-.31.38-.77.17-1.15-.2-.37-.36-.76-.48-1.16-.12-.44-.51-.72-.94-.72zm2.85 6.02c.51.28 1.04.5 1.59.66.62.18 1.24-.32 1.24-.96v-.03c0-.43-.28-.82-.7-.94-.4-.12-.78-.28-1.15-.48-.38-.21-.86-.14-1.16.17l-.03.03c-.45.45-.36 1.24.21 1.55zM13 4.07v-.66c0-.89-1.08-1.34-1.71-.71L9.17 4.83c-.4.4-.4 1.04 0 1.43l2.13 2.08c.63.62 1.7.17 1.7-.72V6.09c2.84.48 5 2.94 5 5.91 0 2.73-1.82 5.02-4.32 5.75-.41.12-.68.51-.68.94v.02c0 .65.61 1.14 1.23.96C17.57 18.71 20 15.64 20 12c0-4.08-3.05-7.44-7-7.93z"/>
    <path id="rotate-left-dark"
          d="M6.56 7.98C6.1 7.52 5.31 7.6 5 8.17c-.28.51-.5 1.03-.67 1.58-.19.63.31 1.25.96 1.25h.01c.43 0 .82-.28.94-.7.12-.4.28-.79.48-1.17.22-.37.15-.84-.16-1.15zM5.31 13h-.02c-.65 0-1.15.62-.96 1.25.16.54.38 1.07.66 1.58.31.57 1.11.66 1.57.2.3-.31.38-.77.17-1.15-.2-.37-.36-.76-.48-1.16-.12-.44-.51-.72-.94-.72zm2.85 6.02c.51.28 1.04.5 1.59.66.62.18 1.24-.32 1.24-.96v-.03c0-.43-.28-.82-.7-.94-.4-.12-.78-.28-1.15-.48-.38-.21-.86-.14-1.16.17l-.03.03c-.45.45-.36 1.24.21 1.55zM13 4.07v-.66c0-.89-1.08-1.34-1.71-.71L9.17 4.83c-.4.4-.4 1.04 0 1.43l2.13 2.08c.63.62 1.7.17 1.7-.72V6.09c2.84.48 5 2.94 5 5.91 0 2.73-1.82 5.02-4.32 5.75-.41.12-.68.51-.68.94v.02c0 .65.61 1.14 1.23.96C17.57 18.71 20 15.64 20 12c0-4.08-3.05-7.44-7-7.93z"/>

    <path id="rotate-right-light"
          d="M14.83 4.83 12.7 2.7c-.62-.62-1.7-.18-1.7.71v.66C7.06 4.56 4 7.92 4 12c0 3.64 2.43 6.71 5.77 7.68.62.18 1.23-.32 1.23-.96v-.03c0-.43-.27-.82-.68-.94C7.82 17.03 6 14.73 6 12c0-2.97 2.16-5.43 5-5.91v1.53c0 .89 1.07 1.33 1.7.71l2.13-2.08c.4-.38.4-1.02 0-1.42zm4.84 4.93c-.16-.55-.38-1.08-.66-1.59-.31-.57-1.1-.66-1.56-.2l-.01.01c-.31.31-.38.78-.17 1.16.2.37.36.76.48 1.16.12.42.51.7.94.7h.02c.65 0 1.15-.62.96-1.24zM13 18.68v.02c0 .65.62 1.14 1.24.96.55-.16 1.08-.38 1.59-.66.57-.31.66-1.1.2-1.56l-.02-.02c-.31-.31-.78-.38-1.16-.17-.37.21-.76.37-1.16.49-.41.12-.69.51-.69.94zm4.44-2.65c.46.46 1.25.37 1.56-.2.28-.51.5-1.04.67-1.59.18-.62-.31-1.24-.96-1.24h-.02c-.44 0-.82.28-.94.7-.12.4-.28.79-.48 1.17-.21.38-.13.86.17 1.16z"/>
    <path id="rotate-right-dark"
          d="M14.83 4.83 12.7 2.7c-.62-.62-1.7-.18-1.7.71v.66C7.06 4.56 4 7.92 4 12c0 3.64 2.43 6.71 5.77 7.68.62.18 1.23-.32 1.23-.96v-.03c0-.43-.27-.82-.68-.94C7.82 17.03 6 14.73 6 12c0-2.97 2.16-5.43 5-5.91v1.53c0 .89 1.07 1.33 1.7.71l2.13-2.08c.4-.38.4-1.02 0-1.42zm4.84 4.93c-.16-.55-.38-1.08-.66-1.59-.31-.57-1.1-.66-1.56-.2l-.01.01c-.31.31-.38.78-.17 1.16.2.37.36.76.48 1.16.12.42.51.7.94.7h.02c.65 0 1.15-.62.96-1.24zM13 18.68v.02c0 .65.62 1.14 1.24.96.55-.16 1.08-.38 1.59-.66.57-.31.66-1.1.2-1.56l-.02-.02c-.31-.31-.78-.38-1.16-.17-.37.21-.76.37-1.16.49-.41.12-.69.51-.69.94zm4.44-2.65c.46.46 1.25.37 1.56-.2.28-.51.5-1.04.67-1.59.18-.62-.31-1.24-.96-1.24h-.02c-.44 0-.82.28-.94.7-.12.4-.28.79-.48 1.17-.21.38-.13.86.17 1.16z"/>
</svg>
